<svg width="266" height="200" viewBox="0 0 266 200" fill="none" xmlns="http://www.w3.org/2000/svg">
<path d="M140.5 185.714C136.214 189 150.643 201.143 115.214 188.357C79.8571 175.571 65.4286 131 58.2143 106.429C51 81.8572 70.3571 48.4286 83.1429 38.9286C95.9286 29.4286 119.5 25.5 122.143 25.1429C124.714 24.8572 128.357 23.2143 134.571 17C140.786 10.7857 160.429 4.2143 174.571 7.14288C188.643 10.0714 223.714 43.5 246.929 90.7143C270.214 137.857 238.786 171.643 233.214 171.643C227.643 171.643 195.5 150 192.571 147.357C189.643 144.786 182.429 144.071 177.143 142.143C171.929 140.143 159.786 125.786 159.786 125.786C161.786 161.786 144.714 182.429 140.5 185.714Z" fill="#EAB363"/>
<path d="M126.714 190.286C119.143 190.286 99.5 176.571 78.5714 147.714C57.5714 118.857 63.5 78.5715 63.5 78.5715C59.5714 139.857 131 187.357 131 187.357C131 187.357 134.214 190.286 126.714 190.286Z" fill="#8C5E28"/>
<path d="M177.143 142.143C171.929 140.143 159.786 125.786 159.786 125.786C159.786 125.786 154.214 66.7858 159.786 40.9286C165.357 15 168.286 14.7143 172.214 23.2143C175.786 30.8572 176.929 113.643 189.286 145.571C185.786 144.286 180.929 143.571 177.143 142.143Z" fill="#E2942D"/>
<path d="M121.143 27.1429C121.143 27.1429 110 36.2857 107.714 37C105.429 37.6429 79.5 51.0715 72.3571 65.1429C65.1429 79.2143 69.7143 57.6429 77.2143 50.0715C84.7857 42.5715 103.429 29.0715 121.143 27.1429Z" fill="#8C5E28"/>
<path d="M114.071 174.071C69.9286 198 17.6429 198.214 17.6429 198.214C23.5 183.429 6.57143 158.357 6.57143 158.357C55.2143 163.5 87.2143 145.571 87.2143 145.571C88.3572 147.071 114.071 174.071 114.071 174.071Z" fill="#E6E6E6"/>
<path opacity="0.1" d="M114.071 174.071C100.571 181.357 86.3571 186.429 73.0714 190C68.2143 172.643 56.9286 162.786 47.8571 157.5C72.5 153.786 87.2143 145.571 87.2143 145.571C88.3571 147.071 114.071 174.071 114.071 174.071Z" fill="black"/>
<path d="M140.214 33.1429C133.286 46.3572 114.857 38.3572 119 38.1429C123.143 37.9286 135.571 20.8572 143.857 15.1429C152.214 9.42858 174.571 7.14286 177.071 10.7143C179.643 14.2857 172.5 14.8572 164.214 15.1429C155.857 15.3572 150.357 57.2857 150.357 57.2857C135.143 49.4286 147.143 19.9286 140.214 33.1429Z" fill="#F4CD9A"/>
</svg>
